<svg xmlns="http://www.w3.org/2000/svg" xmlns:xlink="http://www.w3.org/1999/xlink" version="1.1" id="Layer_1" x="0px" y="0px" style="enable-background:new 0 0 841.9 595.2;" xml:space="preserve" viewBox="138.2 165.4 530.4 307.03">
<style type="text/css">
	.st0{clip-path:url(#SVGID_1_);fill-rule:evenodd;clip-rule:evenodd;fill:#2A50BC;}
	.st1{clip-path:url(#SVGID_1_);fill-rule:evenodd;clip-rule:evenodd;fill:#5E5E5E;}
</style>
<g>
	<defs>
		<rect id="SVGID_3_" x="-1134.3" y="-1535.7" width="3708" height="2621.4"/>
	</defs>
	<clipPath id="SVGID_1_">
		<use xlink:href="#SVGID_3_" style="overflow:visible;"/>
	</clipPath>
	<path class="st0" d="M164.9,375.2c3.5-0.6,8.1-1.6,13.1-2.7c9.1-1.9,19.7-4.1,28.3-4.9c12.7-1.3,27.5-0.3,40.3,1.2   c17.7,2.1,31.7,5.2,31.7,5.2s-32.4-33-74.9-33c-14.2,0-28.7,1.5-41.8,4c13.9-31.8,50.4-49.2,78-71.1c4.9-3.9,9.5-7.9,13.6-12.1   c19.6-20.3,25.1-42.5,25.1-61c0-14.2-3.3-26.5-5.5-34.5l-4.4,0.7c-0.8,15.7-10.7,30.2-24.7,44c-9.9,9.8-22,19.3-34.2,28.6   c-25.5,19.4-52.1,37.9-63.3,57.1c-5.5,9.4-8,20.3-8,31.2C138.3,350.8,149.2,373,164.9,375.2 M231.1,334.9l-12.6-5.3   c0,0-1,8.6,4.1,11.2L231.1,334.9z M296.8,370.6c-6.2-22.5-23.5-27.3-34.7-28.6c-2.7-0.3-4.4-0.4-4.4-0.4l8.4-5.1   c0,0-3.2-2.6-8.6-0.3c-5.4,2.3-10.4,0.4-10.4,0.4l-15-9.6l7.6,2.7l17.9-10.4c-4.1-2.7-10.1-3.6-16.2-1.4   c-6.2,2.2-16.3,4.7-22.8,2.5c-0.3-0.1-0.7-0.2-1-0.3c0,0,0,0,0,0c-0.7-0.2-1.7-0.5-2.7-0.8c-0.4-0.1-1.1-0.5-2-0.9   c-4.4-2.1-8.5-2.7-10.5-2.5c-2.6,0.3-5,0.6-4.9,1.9c0,0,0.5,2.1,6.6,4.5c4.9,1.9,9.6,3.8,11.3,4.5c0,0,0,0,0,0   c0,0,12.6,5.1,24.6,9.9c5.3,2.1,10.9,4.7,16,7.5c8.1,4.5,17.8,11.7,28,27.1c-1.7,28-21.6,54.6-54,62.6c-13.8,3.2-45,4.8-59.8,3.1   c-15.7-1.8-31.7-3.6-31.7-3.6s13.7,15.1,30.6,25.6c27.1,16.8,78,21.9,107.9-8.9C294.7,431.7,304.4,397.9,296.8,370.6 M179.2,451.9   c-5-1.3-9.9-2.8-14.7-4.4l1.3-3.6c4.6,1.6,9.5,3.1,14.3,4.3L179.2,451.9z M201.8,455.9c-4.9-0.5-10-1.3-15.2-2.3l0.8-3.7   c5,1,10,1.8,14.8,2.3L201.8,455.9z M213.4,456.5c-1.3,0-2.6,0-3.9-0.1l0.1-3.8c5.1,0.2,10.2,0,14.8-0.6l0.5,3.8   C221.2,456.3,217.4,456.5,213.4,456.5 M234.7,454.1c-0.7,0.2-1.4,0.3-2.2,0.5l-0.8-3.7c0.7-0.1,1.4-0.3,2-0.5   c4.1-1,8.1-2.4,11.9-4.2l1.6,3.4C243.2,451.5,239,453,234.7,454.1 M254.1,446.1l-1.9-3.3c4.2-2.5,8.1-5.4,11.8-8.7l2.5,2.8   C262.7,440.4,258.5,443.5,254.1,446.1 M272,431.4l-2.8-2.6c3.3-3.6,6.3-7.5,9-11.7l3.2,2.1C278.6,423.6,275.4,427.7,272,431.4    M285.4,412.6l-3.3-1.8c4.2-7.7,5.9-13.5,5.9-13.5l3.6,1.1C291.5,398.6,289.8,404.5,285.4,412.6"/>
	<path class="st1" d="M384,394.3c-14.1-12.3-18.4-19.8-18.4-29.8c0-9.8,3.9-13.5,10.8-13.5c6.9,0,10.8,3.7,10.8,13.5v5.7h20.4v-4.3   c0-22-10.8-34.5-31.7-34.5c-21,0-31.8,12.5-31.8,34.5c0,15.7,5.7,27,23.7,42.9c14.1,12.3,18.4,19.8,18.4,29.8   c0,9.8-4.3,13.3-11.2,13.3c-6.9,0-11.2-3.5-11.2-13.3v-9.8h-20.4v8.4c0,22,11,34.5,32.1,34.5c21.2,0,32.1-12.5,32.1-34.5   C407.7,421.6,402,410.2,384,394.3 M413.8,352.6h22.5v117.6h21.6V352.6h22.5V333h-66.6V352.6z M489.8,470.2h58.8v-19.6h-37.2v-40.2   H541v-19.6h-29.6v-38.2h37.2V333h-58.8V470.2z M593.7,333h-31.8v137.2h21.6v-51.5h10.2c21.6,0,32.1-12,32.1-33.9v-17.8   C625.8,345,615.3,333,593.7,333 M604.3,386.1c0,9.8-3.7,12.9-10.6,12.9h-10.2v-46.4h10.2c6.9,0,10.6,3.1,10.6,12.9V386.1z"/>
	<path class="st1" d="M309,198.9c0-14.5,5.5-25.3,20.4-25.3c14.9,0,20.4,11,20.4,25.5v3.5h8.6v-2.9c0-19.8-8.4-34.3-29.2-34.3   c-20.2,0.2-29.2,13.5-29.2,34.1c0,38.2,49.6,38.8,49.6,71.7c0,14.7-5.7,25.3-20.8,25.3c-15.1,0-20.8-10.6-20.8-25.3v-7.6h-8.6v7.1   c0,19.8,8.6,34.3,29.6,34.3c21,0,29.6-14.5,29.6-34.3C358.6,232.8,309,232.3,309,198.9 M401.1,166.4l-30,137.4h8.2l6.9-30.4h42.7   l6.9,30.4h9l-30.6-137.4H401.1z M387.6,265.6l19.8-88.8l20.2,88.8H387.6z M458.5,303.8h9v-62.1H503v-8.2h-35.5v-58.6h43.1v-8.2   h-52.1V303.8z M549.8,166.4l-30,137.4h8.2l6.9-30.4h42.7l6.9,30.4h9L563,166.4H549.8z M536.3,265.6l19.8-88.8l20.2,88.8H536.3z    M665.3,287.3V266c0-14.9-5.7-24.9-19.8-28c13.5-3.1,19.8-12.3,19.8-28.4v-12c0-19.4-8.4-31-29.4-31h-28.6v137.2h9v-61.3h14.3   c15.7,0,25.7,5.1,25.7,23.3v21.6c0,7.4,0.6,12.3,2.9,16.5h9.4C665.7,299.3,665.3,293,665.3,287.3 M616.3,234.2v-59.4h19.4   c14.9,0,20.6,8.8,20.6,23.5v12.9c0,18.4-9.4,22.9-25.5,22.9H616.3z"/>
</g>
</svg>