<svg xmlns="http://www.w3.org/2000/svg" xmlns:xlink="http://www.w3.org/1999/xlink" version="1.1" id="Layer_1" x="0px" y="0px" style="enable-background:new 0 0 841.9 595.2;" xml:space="preserve" viewBox="317.1 21.7 208.1 470.6">
<style type="text/css">
	.st0{fill-rule:evenodd;clip-rule:evenodd;fill:#2A50BC;}
	.st1{fill-rule:evenodd;clip-rule:evenodd;fill:#5E5E5E;}
</style>
<g>
	<path class="st0" d="M351.4,291.5c4.5-0.8,10.4-2.1,16.9-3.5c11.7-2.5,25.4-5.2,36.6-6.3c16.4-1.6,35.5-0.4,52.1,1.6   c22.8,2.7,40.9,6.8,40.9,6.8s-41.8-42.6-96.7-42.6c-18.3,0-37.1,1.9-54,5.2c17.9-41.1,65-63.5,100.7-91.8   c6.3-5,12.2-10.2,17.6-15.7c25.3-26.3,32.4-54.9,32.4-78.9c0-18.3-4.2-34.3-7-44.6l-5.6,0.9c-1,20.3-13.8,39-31.9,56.9   c-12.8,12.7-28.3,24.9-44.1,36.9c-33,25-67.3,48.9-81.7,73.8c-7,12.2-10.3,26.3-10.3,40.4C317.2,260.1,331.2,288.7,351.4,291.5    M437,239.5l-16.3-6.9c0,0-1.3,11.1,5.3,14.5L437,239.5z M521.8,285.6c-8-29.1-30.3-35.3-44.8-36.9c-3.5-0.4-5.7-0.5-5.7-0.5   l10.9-6.6c0,0-4.2-3.3-11.1-0.3c-6.9,3-13.5,0.5-13.5,0.5l-19.3-12.3l9.8,3.4l23.1-13.4c-5.3-3.5-13-4.6-21-1.8   c-8,2.8-21,6-29.4,3.2c-0.4-0.1-0.9-0.3-1.3-0.5c0,0,0,0,0,0c-0.9-0.3-2.1-0.7-3.5-1.1c-0.5-0.1-1.4-0.6-2.6-1.2   c-5.7-2.7-11-3.5-13.5-3.2c-3.4,0.4-6.5,0.8-6.4,2.5c0,0,0.7,2.7,8.5,5.8c6.3,2.5,12.4,4.9,14.6,5.8c0,0,0,0,0,0   c0,0,16.3,6.6,31.8,12.8c6.9,2.8,14,6.1,20.6,9.7c10.5,5.8,22.9,15.1,36.2,35c-2.3,36.1-27.9,70.5-69.7,80.8   c-17.8,4.2-58.2,6.2-77.2,4c-20.3-2.3-40.9-4.7-40.9-4.7s17.7,19.6,39.5,33.1c34.9,21.7,100.6,28.2,139.4-11.6   C519,364.5,531.5,320.9,521.8,285.6 M369.9,390.6c-6.4-1.6-12.8-3.6-18.9-5.7l1.6-4.6c6,2.1,12.2,4,18.5,5.6L369.9,390.6z    M399.1,395.8c-6.3-0.6-12.9-1.6-19.6-3l1-4.8c6.5,1.3,12.9,2.3,19.1,2.9L399.1,395.8z M414.1,396.6c-1.7,0-3.4,0-5-0.1l0.2-4.9   c6.6,0.2,13.1,0,19.1-0.7l0.6,4.8C424.2,396.3,419.2,396.6,414.1,396.6 M441.5,393.4c-0.9,0.2-1.8,0.4-2.8,0.7l-1-4.8   c0.9-0.2,1.8-0.4,2.6-0.6c5.3-1.3,10.5-3.1,15.4-5.4l2,4.4C452.6,390.1,447.1,392,441.5,393.4 M466.6,383.2l-2.5-4.2   c5.4-3.2,10.5-7,15.3-11.3l3.3,3.6C477.7,375.8,472.3,379.8,466.6,383.2 M489.8,364.2l-3.6-3.3c4.2-4.6,8.1-9.7,11.7-15.1l4.1,2.6   C498.3,354.1,494.2,359.4,489.8,364.2 M507,339.9l-4.3-2.3c5.4-9.9,7.6-17.4,7.6-17.5l4.7,1.4C514.9,321.8,512.6,329.4,507,339.9"/>
	<path class="st1" d="M320,460.3c0-4.4,1.6-7.6,6.1-7.6c4.5,0,6.1,3.3,6.1,7.6v1.1h2.6v-0.9c0-5.9-2.5-10.3-8.8-10.3   c-6.1,0.1-8.8,4.1-8.8,10.2c0,11.5,14.9,11.6,14.9,21.5c0,4.4-1.7,7.6-6.2,7.6c-4.5,0-6.2-3.2-6.2-7.6v-2.3h-2.6v2.1   c0,5.9,2.6,10.3,8.9,10.3s8.9-4.4,8.9-10.3C334.9,470.5,320,470.3,320,460.3 M347.7,450.6l-9,41.2h2.5l2.1-9.1H356l2.1,9.1h2.7   l-9.2-41.2H347.7z M343.6,480.3l5.9-26.6l6.1,26.6H343.6z M364.9,491.8h2.7v-18.6h10.6v-2.5h-10.6v-17.6h12.9v-2.5h-15.6V491.8z    M392.3,450.6l-9,41.2h2.5l2.1-9.1h12.8l2.1,9.1h2.7l-9.2-41.2H392.3z M388.3,480.3l5.9-26.6l6.1,26.6H388.3z M427,480.4   c0-4.5-1.7-7.5-5.9-8.4c4.1-0.9,5.9-3.7,5.9-8.5v-3.6c0-5.8-2.5-9.3-8.8-9.3h-8.6v41.2h2.7v-18.4h4.3c4.7,0,7.7,1.5,7.7,7v6.5   c0,2.2,0.2,3.7,0.9,4.9h2.8c-0.9-1.4-1-3.2-1-4.9V480.4z M412.3,470.9v-17.8h5.8c4.5,0,6.2,2.6,6.2,7.1v3.9c0,5.5-2.8,6.9-7.6,6.9   H412.3z M452.5,469c-4.2-3.7-5.5-5.9-5.5-8.9c0-2.9,1.2-4.1,3.2-4.1c2.1,0,3.2,1.1,3.2,4.1v1.7h6.1v-1.3c0-6.6-3.2-10.4-9.5-10.4   s-9.5,3.8-9.5,10.4c0,4.7,1.7,8.1,7.1,12.9c4.2,3.7,5.5,5.9,5.5,8.9c0,2.9-1.3,4-3.4,4c-2.1,0-3.4-1.1-3.4-4v-2.9h-6.1v2.5   c0,6.6,3.3,10.4,9.6,10.4c6.4,0,9.6-3.8,9.6-10.4C459.7,477.2,457.9,473.8,452.5,469 M461.5,456.5h6.8v35.3h6.5v-35.3h6.8v-5.9h-20   V456.5z M484.3,491.8h17.6v-5.9h-11.2v-12.1h8.9V468h-8.9v-11.5h11.2v-5.9h-17.6V491.8z M515.5,450.6h-9.5v41.2h6.5v-15.5h3.1   c6.5,0,9.6-3.6,9.6-10.2v-5.4C525.1,454.2,521.9,450.6,515.5,450.6 M518.6,466.6c0,2.9-1.1,3.9-3.2,3.9h-3.1v-13.9h3.1   c2.1,0,3.2,0.9,3.2,3.9V466.6z"/>
</g>
</svg>